<svg xmlns="http://www.w3.org/2000/svg"><symbol id="bus-marker" viewBox="0 0 64 64"><defs><clipPath id="clip-path"><path fill="none" d="M-50.2 2h30.6v59.35h-30.6z"/></clipPath></defs><path fill="#f4f1ee" d="M29.5 4.2l1.1-.3 2.8.3 6.4 1.1.7.8-.7 1.3c-.4 0-1 .1-1.2-.1-2.1-1.8-4.7-1-7-1.1a10.7 10.7 0 0 0-6.5 1.2 40.1 40.1 0 0 0-4.9 3c-.9.7-1.5 1.7-2.6 2l-.4-1.1.8-2 .6-1.2a9.5 9.5 0 0 0 2.4-.7c2.7-1.5 5.4-3 8.5-3.2z"/><path fill="#e9f0f6" d="M17.2 11.3l.4 1.1-2.3 5.3c-.3.5-.8.9-1.1 1.4a3.1 3.1 0 0 0-.5 1.2c-.2 2-.3 3.9-.5 5.9a6.7 6.7 0 0 0-.9 1.4 18 18 0 0 0-.8 2.1c-.3-2.6-1.1-5.2.5-7.8.4-.5.2-1.4.2-2.1.2-3.7 2.2-6.3 5-8.5z"/><path fill="#ebe9e5" d="M11.5 29.7a18 18 0 0 1 .8-2.1 6.7 6.7 0 0 1 .9-1.4c.5 2.1 1 4.2 1.4 6.4h-2l-1.1-1.8z"/><path fill="#f4f1ee" d="M42.6 7.1a6.1 6.1 0 0 1 2 .9 59 59 0 0 1 5 5 16.9 16.9 0 0 1 1.9 3.2c.7 1.4 1.3 2.8 1.9 4.3a3 3 0 0 1 .2 1 64.3 64.3 0 0 1-.1 7.6c-.1 1.4-1 2.8-1.6 4.2s-.9 1.5-1.2 2.3-1.3 2.9-2.1 4.2a38.2 38.2 0 0 1-3.4 3.6c-1.9 1.8-3.7 3.8-5.7 5.5a17.4 17.4 0 0 0-3 3.7 4 4 0 0 0-.2 1.9h-2.4c.4-1 .8-2 1.3-3a8.9 8.9 0 0 1 1.7-2.7 70.6 70.6 0 0 0 6.6-6.8c2.6-2.8 5.9-5.8 6.3-10.3v-.2c.6-2 1.1-4.1 1.7-6.2a1.7 1.7 0 0 0-.1-.7c-1.2-2.2-.3-5.1-2-7.3s-1-3-2-4.1a39.3 39.3 0 0 0-5.5-4.4z"/><path fill="#ebe9e4" d="M42.6 7.1c-.2.5-.4 1.1-.7 1.7l-2.1-1.4.7-1.3h1l.8.2z"/><path fill="#ea4536" d="M39.8 7.4l2.1 1.4a39.3 39.3 0 0 1 5.5 4.4c1 1.1 1.1 2.9 2 4.1s.8 5.1 2 7.3a1.7 1.7 0 0 1 .1.7c-.6 2.1-1.1 4.2-1.7 6.2v.2c-.4 4.5-3.7 7.5-6.3 10.3a70.6 70.6 0 0 1-6.6 6.8 8.9 8.9 0 0 0-1.7 2.7c-.5 1-.9 2-1.3 3s.1 1.3-.2 1.7-1 1.4-1.5 1.4-1.2-.8-1.5-1.4-.1-1.1-.1-1.7a8.3 8.3 0 0 0-.4-1.5c-1-2-1.8-4.2-4.2-5.2a8 8 0 0 0-3.8-5L20 40.7l-4.7-6.4-.7-1.7-1.4-6.4c.2-2 .3-3.9.5-5.9a3.1 3.1 0 0 1 .5-1.2c.3-.5.8-.9 1.1-1.4l2.3-5.3c1.1-.3 1.7-1.3 2.6-2a40.1 40.1 0 0 1 4.9-3 10.7 10.7 0 0 1 6.5-1.2c2.3.1 4.9-.7 7 1.1.2.2.8.1 1.2.1zm-1.3 26.5c1.8-1.4 3.4-2.7 3.1-5.3s.1-4.6-.1-6.9a7 7 0 0 0-.7-3.6c-1-1.4-2.4-3.1-3.9-3.4s-5.6-.3-8.5-.2-4.8 2.8-4.9 5.2.1 5.4 0 8.2-.1 4.8 2.4 6l-.7 2.5h14.4z"/><path fill="#fff6d7" d="M15.3 34.3l4.7 6.4-1.8.7h-1c-.9-2-1.7-4-3.6-5.3v-1.4z"/><path fill="#fff2af" d="M15.3 34.3l-1.7.4-1.4-.4a13.6 13.6 0 0 0 .4-1.7h2a12.2 12.2 0 0 1 .7 1.7z"/><path fill="#e4e2df" d="M30.6 54.5c0 .6-.2 1.3.1 1.7s1 1.4 1.5 1.4 1.2-.8 1.5-1.4.1-1.1.2-1.7h2.4c-.6 2-.2 4.5-1.8 5.6h-4.2c-.5-1.5-1.2-3.6-1.8-5.6h2.1z"/><path fill="#fff2af" d="M18.2 41.4l1.8-.7 2.2 2.1c-.3.5-.5 1-.8 1.4h-2c-.3-.4-.5-.9-.8-1.4a10.3 10.3 0 0 0-.4-1.4z"/><path fill="#fff6d7" d="M21.5 45.3c0-.4-.1-.7-.1-1.1s.5-.9.8-1.4a8 8 0 0 1 3.8 5l-.7 1.8H25l-2.6-3.7a1.6 1.6 0 0 0-.9-.6z"/><path fill="#fffcfc" d="M38.5 33.9l1.1 2.5H25.2l.7-2.5c-2.5-1.2-2.5-3.6-2.4-6s0-5.5 0-8.2 2.5-5.1 4.9-5.2 5.8-.4 8.5.2 2.9 2 3.9 3.4a7 7 0 0 1 .7 3.6c.2 2.3-.1 4.6.1 6.9s-1.3 3.9-3.1 5.3zM25.4 18.1v6.2h5.8v-6.2zm13.9 6.3v-6.2h-5.7v6.2zm-10.3 7a8.9 8.9 0 0 0-.7-2.6 1.7 1.7 0 0 0-1.8.1 14.7 14.7 0 0 0-1.2 2.5zm9.9.2c-.5-1.2.7-2.9-1.4-2.9s-2 .3-1.9 1.6 1.9.9 3.3 1.3z"/><path fill="#f4f1ee" d="M25.3 49.6l.7-1.8c2.4 1 3.2 3.2 4.2 5.2a8.3 8.3 0 0 1 .4 1.5h-2.1c-.9-1.1-.4-3.4-2.8-3.2-.1-.6-.3-1.2-.4-1.7z"/><path fill="#ea4536" d="M25.4 18.1h5.8v6.2h-5.8zm13.9 6.3h-5.7v-6.2h5.7zm-10.3 7h-3.7a14.7 14.7 0 0 1 1.2-2.5 1.7 1.7 0 0 1 1.8-.1 8.9 8.9 0 0 1 .7 2.6zm9.9.2c-1.4-.4-3 .6-3.3-1.3s1.1-1.6 1.9-1.6.9 1.7 1.4 2.9z"/><g id="Flag" fill="none" clip-path="url(#clip-path)"><path d="M-19.7 3.6h31v58.81h-31z"/><path d="M-19.7-55.2h31V3.61h-31z"/></g></symbol><symbol id="home" viewBox="0 0 64 64"><g id="Group_272" fill="#f15a22"><path id="Path_3" d="M53.8 41.3v15.5a4.4 4.4 0 0 1-4.4 4.4H14.6a4.4 4.4 0 0 1-4.4-4.4V40.7h43.6z"/><path id="Path_4" d="M58.6 38.1a2.1 2.1 0 0 1-.4 1.2 3.3 3.3 0 0 1-2.7 1.2h-47a3 3 0 0 1-2.6-1.2 1.8 1.8 0 0 1 0-2.4l5.8-8 5.9-8.1 6.2-8.6 1.8-2.4 3.8-5.2a3.5 3.5 0 0 1 4.9-.4l.3.4 3.8 5.2 1.8 2.4 6.2 8.6 5.9 8.1 5.8 8h.1a2.8 2.8 0 0 1 .4 1.2z"/></g></symbol><symbol id="home-white" viewBox="0 0 64 64"><g id="Group_271" fill="none" stroke-miterlimit="10"><path id="Path_3" stroke="#8e8e93" stroke-width="2.1" d="M52.7 40.7v15.2a4.3 4.3 0 0 1-4.3 4.3H14.2a4.4 4.4 0 0 1-4.4-4.3V40.7c0-.2.1-.4.1-.6h42.8z"/><path id="Path_4" stroke="#7b787a" stroke-width="2.47" d="M57.4 37.6a2.1 2.1 0 0 1-.4 1.1 3.1 3.1 0 0 1-2.6 1.2H8.2a3.1 3.1 0 0 1-2.6-1.1 2.1 2.1 0 0 1 0-2.4h.1l5.6-7.8 5.9-8 6.1-8.4L25 9.7l3.7-5a3.4 3.4 0 0 1 4.8-.4l.4.4 3.7 5 1.7 2.4 6.1 8.4 5.9 8 5.6 7.8h.1a2.1 2.1 0 0 1 .4 1.3z"/></g></symbol><symbol id="heart" viewBox="0 0 64 64"><path fill="#f15c2d" d="M42.8 3.8h2.1c1.3.6 2.7.5 4 1 6.3 2.6 9.7 7.5 11.1 14 .1.6 0 1.3.5 1.8v.9a4.2 4.2 0 0 0 0 3.1v1.2c-.5.3-.4.9-.4 1.3a20.8 20.8 0 0 1-5.9 11.1l-11 11.2-10.3 10.5c-.9.9-1.5.9-2.5-.1L28 57.4 9.4 38.5a19.3 19.3 0 0 1-4.3-6.6c-.8-1.7-1-3.6-1.7-5.3v-5.8c.6-.2.4-.7.5-1.1a20.9 20.9 0 0 1 3.9-8.9 15 15 0 0 1 22.5-2.1c1.3 1.2 1.7 1.1 2.9-.1a15 15 0 0 1 7.9-4.3c.6-.2 1.2 0 1.7-.5z"/><path fill="#f7966d" d="M60.5 24.6a4.2 4.2 0 0 1 0-3.1z"/></symbol><symbol id="flag" viewBox="0 0 64 64"><defs><clipPath id="clip-path"><path fill="none" d="M18.8 2h30.6v59.35H18.8z"/></clipPath></defs><g id="Flag" fill="none" clip-path="url(#clip-path)"><path d="M49.3 3.6h31v58.81h-31z"/><path d="M49.3-55.2h31V3.61h-31z"/><path d="M18.4 3.6h31v58.81h-31z"/></g></symbol><symbol id="map-marker" viewBox="0 0 64 64"><path fill="#ea4536" d="M42.8 41.9l-.5.4c-1.6 0-1.6 0-1.6 1.6l-.4.5c-1.7-.1-1.7-.1-1.6 1.6l-.9 1.6h-1.1v1c-1.4.5-1.5 1.9-2 3h-1.3l.3 1.6c-.9.6-.8 1.5-.7 2.4l-.4 2.3h-2.1l-.5-2.7.5-1.2-1.2-.4c-.1-.1-.4-.3-.4-.5s-.4-1.4-.9-2l.6-1.5h-1.3l-2.1-2.1c.2-.9 0-1.6-1.1-1.6l-.5-.4a1.5 1.5 0 0 0-1.5-1.6l-.5-.5c0-.9-.6-1.4-1.5-1.6l-.5-.2a1.7 1.7 0 0 0-1.6-1.8c0-.8.3-1.8-1.1-1.6l-.7-.4-.7-1.1.4-1.3-1.5-.3-.5-.9-.4-1.6.4-1.3-1.1-.3a4.2 4.2 0 0 1-.4-1.5 4.9 4.9 0 0 1-.1-1.2c.9-1.1.7-2.3-.4-2.5.2-2.2.3-4.4.5-6.6 0-.4.4-.7.6-1.1s1-.8.9-1.6l.3-1.1a2.5 2.5 0 0 1 .4-.7l.5-.6c.6-.4 1.5-.6 1.1-1.6s1-1.6 1.8-2.1 1.7.2 1.6-1.1l2-1.4 1.3.5.3-1.2.9-.4 1.6-.9 1.6.4 1.6-.4c1.3.8 1.5.7 1.6-.6l2.5.4c.5.9 1.1 1 2 .2l1.6.4h1.1l1.1.2 1.4.7c-.1 1.3.8 1.1 1.6 1.1v.2c2 0 2.6 2 4 2.8v1.1h1l.5 1.2.4.8c.1.6-.1 1.4.7 1.6s1.2 1.1 1 2l.4.5.2 1.6v1.6c.1.6-.4 1.4.6 1.6s.5 1.7.5 2.5-1.3.3-.8 1.6L50 29l.3 1.6c-.9.6-.6 1.6-.8 2.4a5.1 5.1 0 0 1-.9 1.6 1.3 1.3 0 0 0-1.1 1.6l-.4.9h-1.2v1.1c-1.5-.2-1.1.9-1.1 1.6l-.4.5c-1.7 0-1.7 0-1.6 1.6zM24.2 21.8l.2 1.5c-.1.9-.1 1.7-.2 2.5l.2 1.6c-.5 1.4-.4 1.6 1.3 1.6a3.8 3.8 0 0 0 .3 1 6.4 6.4 0 0 0 1.3 1v1.3l1.5-.6 1.6.4c.8-.1 1.8.4 2.5-.4.8.7 1.5.6 2-.3l1.6-1.3h1.1V29a7.8 7.8 0 0 1 .2-1.4 6.8 6.8 0 0 1 .2-1.4 2.4 2.4 0 0 0 .1-2.8 1.8 1.8 0 0 1-.3-1.2c.5-.9-.1-1.3-.6-1.8l-.8-.7v-1.1H35c-.3-.2-.7-.7-1-.7l-5.4.2a2.9 2.9 0 0 0-1.3.5h-1.1v1.1l-1 .9c-.9-.1-1.2.3-1 1.2z"/><path fill="#ea5548" d="M30.5 57.9h2.1v.8h-2zM14.4 35.1l1.5.3-.4 1.3c-.8-.3-1.2-.7-1.1-1.6zm-2.5-9.3c1.1.2 1.3 1.4.4 2.5-.8-.7-.3-1.7-.4-2.5zm30.9 16.1c-.1-1.6-.1-1.6 1.6-1.6a1.6 1.6 0 0 1-1.6 1.6zm-2.1 2c0-1.6 0-1.6 1.6-1.6 0 1-.6 1.5-1.6 1.6zm-2 2.1c-.1-1.7-.1-1.7 1.6-1.6a1.8 1.8 0 0 1-1.6 1.6zM35 5.9c-.9.8-1.5.7-2-.2s1.3-.5 2 0zm15.6 17.4c-1-.2-.5-1-.6-1.6h1.1zM12.8 31l1.1.3-.4 1.3H13zm32 8.8c0-.7-.4-1.8 1.1-1.6s0 1.6-1.1 1.6zm5.9-12.4h-.4c-.5-1.3-.4-1.5.8-1.6z"/><path fill="#ef8176" d="M33.7 53.2l-.3-1.6h1.2c0 .7 0 1.4-.9 1.6z"/><path fill="#ea5548" d="M23.2 7.2l-.3 1.2-1.3-.5c.2-1 1.1-.5 1.6-.7zm7.3-1.9c-.1 1.3-.3 1.4-1.6.6v-.2z"/><path fill="#ef8176" d="M45.9 38.2v-1.1h1.2v1.1z"/><path fill="#f8f8f8" d="M36.6 30.1L35 31.4c-1.1-.6-1.6-.6-2 .3s-1.7.3-2.5.4l-.3-1.1-1.3.5-1.6-.5a6.4 6.4 0 0 1-1.3-1 3.8 3.8 0 0 1-.3-1l-.9-1.6.4-1.3-1-.3.2-2.5c.9-.2.9-.9.9-1.6v-1.1l1-.9h1.1v-1.1a2.9 2.9 0 0 1 1.3-.5l5.4-.2c.3 0 .7.5 1 .7s.8 1.1 1.6 1.1l.8.7c.5.5 1.1.9.6 1.8a1.8 1.8 0 0 0 .3 1.2 2.4 2.4 0 0 1-.1 2.8 6.8 6.8 0 0 0-.2 1.4 7.8 7.8 0 0 0-.2 1.4h-1.2z"/><path fill="#ea5548" d="M24.8 27.4l.9 1.6c-1.7 0-1.8-.2-1.3-1.6z"/><path fill="#f2a8a1" d="M33 31.7c.4-.9.9-.9 2-.3-.5.9-1.2 1-2 .3z"/><path fill="#ef8176" d="M36.6 19.7c-.8 0-1.7.2-1.6-1.1h1.6z"/><path fill="#ea5548" d="M18 39.8c-1.4.3-1-.8-1.1-1.6 1.4-.2 1.1.8 1.1 1.6zm12 15.4h-.4l-.3-1.6 1.2.4z"/><path fill="#ef8176" d="M28 51.1c-1.1-.1-.6-1-.7-1.5h1.3z"/><path fill="#e9e9e8" d="M24.8 27.4h-.4l-.2-1.6 1 .3zm4.1 4.1l1.3-.5.3 1.1-1.6-.4z"/><path fill="#f2a8a1" d="M25.3 21.7c0 .7 0 1.4-.9 1.6l-.2-1.5z"/><path fill="#ea5548" d="M28.9 31.5v.2l-1.5.6V31z"/><path fill="#ef8176" d="M36.6 30.1V29h1.1v1.1z"/><path fill="#ea5548" d="M25.3 21.7h-1.1c-.2-.9.1-1.3 1-1.2z"/><path fill="#ef8176" d="M27.3 18.6v1.1h-1.1v-1.1z"/></symbol><symbol id="magnifying-glass" viewBox="0 0 64 64"><g id="Search_Glyph"><path id="Search" fill="#231f20" fill-rule="evenodd" d="M60 54.4L44.7 39A22.1 22.1 0 0 0 26.9 4 21.7 21.7 0 0 0 5 25.7v.2A22.2 22.2 0 0 0 27 48a21.8 21.8 0 0 0 13-4.3l15.3 15.4A3.4 3.4 0 0 0 60 59a3.2 3.2 0 0 0 0-4.6zM27 43.6A17.8 17.8 0 0 1 9.4 25.9 17.3 17.3 0 0 1 26.7 8.4h.2A17.7 17.7 0 0 1 44.5 26a17.5 17.5 0 0 1-17.3 17.6z"/></g></symbol><symbol id="heart-white" viewBox="0 0 64 64"><path fill="none" stroke="#231f20" stroke-miterlimit="10" d="M42.8 4H45c1.2.6 2.6.5 3.9 1 6.3 2.6 9.7 7.5 11.1 14 .2.6.1 1.3.5 1.8v.9a4.2 4.2 0 0 0 0 3.1V26c-.5.3-.3.9-.4 1.3a20.8 20.8 0 0 1-5.9 11.1l-11 11.2-10.3 10.5c-.9.9-1.5.9-2.4-.1l-2.4-2.4L9.4 38.7a19.3 19.3 0 0 1-4.3-6.6c-.7-1.7-1-3.6-1.6-5.3V21c.6-.1.4-.7.4-1.1A20.9 20.9 0 0 1 7.8 11a15.1 15.1 0 0 1 22.6-2.1c1.2 1.2 1.6 1.1 2.8-.1a15.3 15.3 0 0 1 8-4.3c.5-.1 1.2 0 1.6-.5z"/></symbol><symbol id="bus-marker" viewBox="0 0 64 64"><defs><clipPath id="clip-path"><path fill="none" d="M-50.2 2h30.6v59.35h-30.6z"/></clipPath></defs><path fill="#f4f1ee" d="M29.5 4.2l1.1-.3 2.8.3 6.4 1.1.7.8-.7 1.3c-.4 0-1 .1-1.2-.1-2.1-1.8-4.7-1-7-1.1a10.7 10.7 0 0 0-6.5 1.2 40.1 40.1 0 0 0-4.9 3c-.9.7-1.5 1.7-2.6 2l-.4-1.1.8-2 .6-1.2a9.5 9.5 0 0 0 2.4-.7c2.7-1.5 5.4-3 8.5-3.2z"/><path fill="#e9f0f6" d="M17.2 11.3l.4 1.1-2.3 5.3c-.3.5-.8.9-1.1 1.4a3.1 3.1 0 0 0-.5 1.2c-.2 2-.3 3.9-.5 5.9a6.7 6.7 0 0 0-.9 1.4 18 18 0 0 0-.8 2.1c-.3-2.6-1.1-5.2.5-7.8.4-.5.2-1.4.2-2.1.2-3.7 2.2-6.3 5-8.5z"/><path fill="#ebe9e5" d="M11.5 29.7a18 18 0 0 1 .8-2.1 6.7 6.7 0 0 1 .9-1.4c.5 2.1 1 4.2 1.4 6.4h-2l-1.1-1.8z"/><path fill="#f4f1ee" d="M42.6 7.1a6.1 6.1 0 0 1 2 .9 59 59 0 0 1 5 5 16.9 16.9 0 0 1 1.9 3.2c.7 1.4 1.3 2.8 1.9 4.3a3 3 0 0 1 .2 1 64.3 64.3 0 0 1-.1 7.6c-.1 1.4-1 2.8-1.6 4.2s-.9 1.5-1.2 2.3-1.3 2.9-2.1 4.2a38.2 38.2 0 0 1-3.4 3.6c-1.9 1.8-3.7 3.8-5.7 5.5a17.4 17.4 0 0 0-3 3.7 4 4 0 0 0-.2 1.9h-2.4c.4-1 .8-2 1.3-3a8.9 8.9 0 0 1 1.7-2.7 70.6 70.6 0 0 0 6.6-6.8c2.6-2.8 5.9-5.8 6.3-10.3v-.2c.6-2 1.1-4.1 1.7-6.2a1.7 1.7 0 0 0-.1-.7c-1.2-2.2-.3-5.1-2-7.3s-1-3-2-4.1a39.3 39.3 0 0 0-5.5-4.4z"/><path fill="#ebe9e4" d="M42.6 7.1c-.2.5-.4 1.1-.7 1.7l-2.1-1.4.7-1.3h1l.8.2z"/><path fill="#ea4536" d="M39.8 7.4l2.1 1.4a39.3 39.3 0 0 1 5.5 4.4c1 1.1 1.1 2.9 2 4.1s.8 5.1 2 7.3a1.7 1.7 0 0 1 .1.7c-.6 2.1-1.1 4.2-1.7 6.2v.2c-.4 4.5-3.7 7.5-6.3 10.3a70.6 70.6 0 0 1-6.6 6.8 8.9 8.9 0 0 0-1.7 2.7c-.5 1-.9 2-1.3 3s.1 1.3-.2 1.7-1 1.4-1.5 1.4-1.2-.8-1.5-1.4-.1-1.1-.1-1.7a8.3 8.3 0 0 0-.4-1.5c-1-2-1.8-4.2-4.2-5.2a8 8 0 0 0-3.8-5L20 40.7l-4.7-6.4-.7-1.7-1.4-6.4c.2-2 .3-3.9.5-5.9a3.1 3.1 0 0 1 .5-1.2c.3-.5.8-.9 1.1-1.4l2.3-5.3c1.1-.3 1.7-1.3 2.6-2a40.1 40.1 0 0 1 4.9-3 10.7 10.7 0 0 1 6.5-1.2c2.3.1 4.9-.7 7 1.1.2.2.8.1 1.2.1zm-1.3 26.5c1.8-1.4 3.4-2.7 3.1-5.3s.1-4.6-.1-6.9a7 7 0 0 0-.7-3.6c-1-1.4-2.4-3.1-3.9-3.4s-5.6-.3-8.5-.2-4.8 2.8-4.9 5.2.1 5.4 0 8.2-.1 4.8 2.4 6l-.7 2.5h14.4z"/><path fill="#fff6d7" d="M15.3 34.3l4.7 6.4-1.8.7h-1c-.9-2-1.7-4-3.6-5.3v-1.4z"/><path fill="#fff2af" d="M15.3 34.3l-1.7.4-1.4-.4a13.6 13.6 0 0 0 .4-1.7h2a12.2 12.2 0 0 1 .7 1.7z"/><path fill="#e4e2df" d="M30.6 54.5c0 .6-.2 1.3.1 1.7s1 1.4 1.5 1.4 1.2-.8 1.5-1.4.1-1.1.2-1.7h2.4c-.6 2-.2 4.5-1.8 5.6h-4.2c-.5-1.5-1.2-3.6-1.8-5.6h2.1z"/><path fill="#fff2af" d="M18.2 41.4l1.8-.7 2.2 2.1c-.3.5-.5 1-.8 1.4h-2c-.3-.4-.5-.9-.8-1.4a10.3 10.3 0 0 0-.4-1.4z"/><path fill="#fff6d7" d="M21.5 45.3c0-.4-.1-.7-.1-1.1s.5-.9.8-1.4a8 8 0 0 1 3.8 5l-.7 1.8H25l-2.6-3.7a1.6 1.6 0 0 0-.9-.6z"/><path fill="#fffcfc" d="M38.5 33.9l1.1 2.5H25.2l.7-2.5c-2.5-1.2-2.5-3.6-2.4-6s0-5.5 0-8.2 2.5-5.1 4.9-5.2 5.8-.4 8.5.2 2.9 2 3.9 3.4a7 7 0 0 1 .7 3.6c.2 2.3-.1 4.6.1 6.9s-1.3 3.9-3.1 5.3zM25.4 18.1v6.2h5.8v-6.2zm13.9 6.3v-6.2h-5.7v6.2zm-10.3 7a8.9 8.9 0 0 0-.7-2.6 1.7 1.7 0 0 0-1.8.1 14.7 14.7 0 0 0-1.2 2.5zm9.9.2c-.5-1.2.7-2.9-1.4-2.9s-2 .3-1.9 1.6 1.9.9 3.3 1.3z"/><path fill="#f4f1ee" d="M25.3 49.6l.7-1.8c2.4 1 3.2 3.2 4.2 5.2a8.3 8.3 0 0 1 .4 1.5h-2.1c-.9-1.1-.4-3.4-2.8-3.2-.1-.6-.3-1.2-.4-1.7z"/><path fill="#ea4536" d="M25.4 18.1h5.8v6.2h-5.8zm13.9 6.3h-5.7v-6.2h5.7zm-10.3 7h-3.7a14.7 14.7 0 0 1 1.2-2.5 1.7 1.7 0 0 1 1.8-.1 8.9 8.9 0 0 1 .7 2.6zm9.9.2c-1.4-.4-3 .6-3.3-1.3s1.1-1.6 1.9-1.6.9 1.7 1.4 2.9z"/><g id="Flag" fill="none" clip-path="url(#clip-path)"><path d="M-19.7 3.6h31v58.81h-31z"/><path d="M-19.7-55.2h31V3.61h-31z"/></g></symbol><symbol id="heart" viewBox="0 0 64 64"><path fill="#f15c2d" d="M42.8 3.8h2.1c1.3.6 2.7.5 4 1 6.3 2.6 9.7 7.5 11.1 14 .1.6 0 1.3.5 1.8v.9a4.2 4.2 0 0 0 0 3.1v1.2c-.5.3-.4.9-.4 1.3a20.8 20.8 0 0 1-5.9 11.1l-11 11.2-10.3 10.5c-.9.9-1.5.9-2.5-.1L28 57.4 9.4 38.5a19.3 19.3 0 0 1-4.3-6.6c-.8-1.7-1-3.6-1.7-5.3v-5.8c.6-.2.4-.7.5-1.1a20.9 20.9 0 0 1 3.9-8.9 15 15 0 0 1 22.5-2.1c1.3 1.2 1.7 1.1 2.9-.1a15 15 0 0 1 7.9-4.3c.6-.2 1.2 0 1.7-.5z"/><path fill="#f7966d" d="M60.5 24.6a4.2 4.2 0 0 1 0-3.1z"/></symbol><symbol id="home" viewBox="0 0 64 64"><g id="Group_272" fill="#f15a22"><path id="Path_3" d="M53.8 41.3v15.5a4.4 4.4 0 0 1-4.4 4.4H14.6a4.4 4.4 0 0 1-4.4-4.4V40.7h43.6z"/><path id="Path_4" d="M58.6 38.1a2.1 2.1 0 0 1-.4 1.2 3.3 3.3 0 0 1-2.7 1.2h-47a3 3 0 0 1-2.6-1.2 1.8 1.8 0 0 1 0-2.4l5.8-8 5.9-8.1 6.2-8.6 1.8-2.4 3.8-5.2a3.5 3.5 0 0 1 4.9-.4l.3.4 3.8 5.2 1.8 2.4 6.2 8.6 5.9 8.1 5.8 8h.1a2.8 2.8 0 0 1 .4 1.2z"/></g></symbol><symbol id="home-white" viewBox="0 0 64 64"><g id="Group_271" fill="none" stroke-miterlimit="10"><path id="Path_3" stroke="#8e8e93" stroke-width="2.1" d="M52.7 40.7v15.2a4.3 4.3 0 0 1-4.3 4.3H14.2a4.4 4.4 0 0 1-4.4-4.3V40.7c0-.2.1-.4.1-.6h42.8z"/><path id="Path_4" stroke="#7b787a" stroke-width="2.47" d="M57.4 37.6a2.1 2.1 0 0 1-.4 1.1 3.1 3.1 0 0 1-2.6 1.2H8.2a3.1 3.1 0 0 1-2.6-1.1 2.1 2.1 0 0 1 0-2.4h.1l5.6-7.8 5.9-8 6.1-8.4L25 9.7l3.7-5a3.4 3.4 0 0 1 4.8-.4l.4.4 3.7 5 1.7 2.4 6.1 8.4 5.9 8 5.6 7.8h.1a2.1 2.1 0 0 1 .4 1.3z"/></g></symbol><symbol id="heart-white" viewBox="0 0 64 64"><path fill="none" stroke="#231f20" stroke-miterlimit="10" d="M42.8 4H45c1.2.6 2.6.5 3.9 1 6.3 2.6 9.7 7.5 11.1 14 .2.6.1 1.3.5 1.8v.9a4.2 4.2 0 0 0 0 3.1V26c-.5.3-.3.9-.4 1.3a20.8 20.8 0 0 1-5.9 11.1l-11 11.2-10.3 10.5c-.9.9-1.5.9-2.4-.1l-2.4-2.4L9.4 38.7a19.3 19.3 0 0 1-4.3-6.6c-.7-1.7-1-3.6-1.6-5.3V21c.6-.1.4-.7.4-1.1A20.9 20.9 0 0 1 7.8 11a15.1 15.1 0 0 1 22.6-2.1c1.2 1.2 1.6 1.1 2.8-.1a15.3 15.3 0 0 1 8-4.3c.5-.1 1.2 0 1.6-.5z"/></symbol><symbol id="flag" viewBox="0 0 64 64"><defs><clipPath id="clip-path"><path fill="none" d="M18.8 2h30.6v59.35H18.8z"/></clipPath></defs><g id="Flag" fill="none" clip-path="url(#clip-path)"><path d="M49.3 3.6h31v58.81h-31z"/><path d="M49.3-55.2h31V3.61h-31z"/><path d="M18.4 3.6h31v58.81h-31z"/></g></symbol><symbol id="map-marker" viewBox="0 0 64 64"><path fill="#ea4536" d="M42.8 41.9l-.5.4c-1.6 0-1.6 0-1.6 1.6l-.4.5c-1.7-.1-1.7-.1-1.6 1.6l-.9 1.6h-1.1v1c-1.4.5-1.5 1.9-2 3h-1.3l.3 1.6c-.9.6-.8 1.5-.7 2.4l-.4 2.3h-2.1l-.5-2.7.5-1.2-1.2-.4c-.1-.1-.4-.3-.4-.5s-.4-1.4-.9-2l.6-1.5h-1.3l-2.1-2.1c.2-.9 0-1.6-1.1-1.6l-.5-.4a1.5 1.5 0 0 0-1.5-1.6l-.5-.5c0-.9-.6-1.4-1.5-1.6l-.5-.2a1.7 1.7 0 0 0-1.6-1.8c0-.8.3-1.8-1.1-1.6l-.7-.4-.7-1.1.4-1.3-1.5-.3-.5-.9-.4-1.6.4-1.3-1.1-.3a4.2 4.2 0 0 1-.4-1.5 4.9 4.9 0 0 1-.1-1.2c.9-1.1.7-2.3-.4-2.5.2-2.2.3-4.4.5-6.6 0-.4.4-.7.6-1.1s1-.8.9-1.6l.3-1.1a2.5 2.5 0 0 1 .4-.7l.5-.6c.6-.4 1.5-.6 1.1-1.6s1-1.6 1.8-2.1 1.7.2 1.6-1.1l2-1.4 1.3.5.3-1.2.9-.4 1.6-.9 1.6.4 1.6-.4c1.3.8 1.5.7 1.6-.6l2.5.4c.5.9 1.1 1 2 .2l1.6.4h1.1l1.1.2 1.4.7c-.1 1.3.8 1.1 1.6 1.1v.2c2 0 2.6 2 4 2.8v1.1h1l.5 1.2.4.8c.1.6-.1 1.4.7 1.6s1.2 1.1 1 2l.4.5.2 1.6v1.6c.1.6-.4 1.4.6 1.6s.5 1.7.5 2.5-1.3.3-.8 1.6L50 29l.3 1.6c-.9.6-.6 1.6-.8 2.4a5.1 5.1 0 0 1-.9 1.6 1.3 1.3 0 0 0-1.1 1.6l-.4.9h-1.2v1.1c-1.5-.2-1.1.9-1.1 1.6l-.4.5c-1.7 0-1.7 0-1.6 1.6zM24.2 21.8l.2 1.5c-.1.9-.1 1.7-.2 2.5l.2 1.6c-.5 1.4-.4 1.6 1.3 1.6a3.8 3.8 0 0 0 .3 1 6.4 6.4 0 0 0 1.3 1v1.3l1.5-.6 1.6.4c.8-.1 1.8.4 2.5-.4.8.7 1.5.6 2-.3l1.6-1.3h1.1V29a7.8 7.8 0 0 1 .2-1.4 6.8 6.8 0 0 1 .2-1.4 2.4 2.4 0 0 0 .1-2.8 1.8 1.8 0 0 1-.3-1.2c.5-.9-.1-1.3-.6-1.8l-.8-.7v-1.1H35c-.3-.2-.7-.7-1-.7l-5.4.2a2.9 2.9 0 0 0-1.3.5h-1.1v1.1l-1 .9c-.9-.1-1.2.3-1 1.2z"/><path fill="#ea5548" d="M30.5 57.9h2.1v.8h-2zM14.4 35.1l1.5.3-.4 1.3c-.8-.3-1.2-.7-1.1-1.6zm-2.5-9.3c1.1.2 1.3 1.4.4 2.5-.8-.7-.3-1.7-.4-2.5zm30.9 16.1c-.1-1.6-.1-1.6 1.6-1.6a1.6 1.6 0 0 1-1.6 1.6zm-2.1 2c0-1.6 0-1.6 1.6-1.6 0 1-.6 1.5-1.6 1.6zm-2 2.1c-.1-1.7-.1-1.7 1.6-1.6a1.8 1.8 0 0 1-1.6 1.6zM35 5.9c-.9.8-1.5.7-2-.2s1.3-.5 2 0zm15.6 17.4c-1-.2-.5-1-.6-1.6h1.1zM12.8 31l1.1.3-.4 1.3H13zm32 8.8c0-.7-.4-1.8 1.1-1.6s0 1.6-1.1 1.6zm5.9-12.4h-.4c-.5-1.3-.4-1.5.8-1.6z"/><path fill="#ef8176" d="M33.7 53.2l-.3-1.6h1.2c0 .7 0 1.4-.9 1.6z"/><path fill="#ea5548" d="M23.2 7.2l-.3 1.2-1.3-.5c.2-1 1.1-.5 1.6-.7zm7.3-1.9c-.1 1.3-.3 1.4-1.6.6v-.2z"/><path fill="#ef8176" d="M45.9 38.2v-1.1h1.2v1.1z"/><path fill="#f8f8f8" d="M36.6 30.1L35 31.4c-1.1-.6-1.6-.6-2 .3s-1.7.3-2.5.4l-.3-1.1-1.3.5-1.6-.5a6.4 6.4 0 0 1-1.3-1 3.8 3.8 0 0 1-.3-1l-.9-1.6.4-1.3-1-.3.2-2.5c.9-.2.9-.9.9-1.6v-1.1l1-.9h1.1v-1.1a2.9 2.9 0 0 1 1.3-.5l5.4-.2c.3 0 .7.5 1 .7s.8 1.1 1.6 1.1l.8.7c.5.5 1.1.9.6 1.8a1.8 1.8 0 0 0 .3 1.2 2.4 2.4 0 0 1-.1 2.8 6.8 6.8 0 0 0-.2 1.4 7.8 7.8 0 0 0-.2 1.4h-1.2z"/><path fill="#ea5548" d="M24.8 27.4l.9 1.6c-1.7 0-1.8-.2-1.3-1.6z"/><path fill="#f2a8a1" d="M33 31.7c.4-.9.9-.9 2-.3-.5.9-1.2 1-2 .3z"/><path fill="#ef8176" d="M36.6 19.7c-.8 0-1.7.2-1.6-1.1h1.6z"/><path fill="#ea5548" d="M18 39.8c-1.4.3-1-.8-1.1-1.6 1.4-.2 1.1.8 1.1 1.6zm12 15.4h-.4l-.3-1.6 1.2.4z"/><path fill="#ef8176" d="M28 51.1c-1.1-.1-.6-1-.7-1.5h1.3z"/><path fill="#e9e9e8" d="M24.8 27.4h-.4l-.2-1.6 1 .3zm4.1 4.1l1.3-.5.3 1.1-1.6-.4z"/><path fill="#f2a8a1" d="M25.3 21.7c0 .7 0 1.4-.9 1.6l-.2-1.5z"/><path fill="#ea5548" d="M28.9 31.5v.2l-1.5.6V31z"/><path fill="#ef8176" d="M36.6 30.1V29h1.1v1.1z"/><path fill="#ea5548" d="M25.3 21.7h-1.1c-.2-.9.1-1.3 1-1.2z"/><path fill="#ef8176" d="M27.3 18.6v1.1h-1.1v-1.1z"/></symbol><symbol id="magnifying-glass" viewBox="0 0 64 64"><g id="Search_Glyph"><path id="Search" fill="#231f20" fill-rule="evenodd" d="M60 54.4L44.7 39A22.1 22.1 0 0 0 26.9 4 21.7 21.7 0 0 0 5 25.7v.2A22.2 22.2 0 0 0 27 48a21.8 21.8 0 0 0 13-4.3l15.3 15.4A3.4 3.4 0 0 0 60 59a3.2 3.2 0 0 0 0-4.6zM27 43.6A17.8 17.8 0 0 1 9.4 25.9 17.3 17.3 0 0 1 26.7 8.4h.2A17.7 17.7 0 0 1 44.5 26a17.5 17.5 0 0 1-17.3 17.6z"/></g></symbol></svg>