<?xml version="1.0" encoding="utf-8"?>
<!-- Generator: Adobe Illustrator 24.0.3, SVG Export Plug-In . SVG Version: 6.00 Build 0)  -->
<svg version="1.1" id="Layer_1" xmlns="http://www.w3.org/2000/svg" xmlns:xlink="http://www.w3.org/1999/xlink" x="0px" y="0px"
	 viewBox="0 0 17.2 4.9" style="enable-background:new 0 0 17.2 4.9;" xml:space="preserve">
<style type="text/css">
	.st0{fill:#F15A29;}
	.st1{fill:#231F20;}
</style>
<g>
	<g>
		<path class="st0" d="M4,3.7c0-0.1,0-0.1,0-0.2c0-0.1-0.1-0.2-0.1-0.4C3.7,2.9,3.6,2.6,3.5,2.3c0,0,0-0.1,0-0.1c0,0,0-0.1,0-0.1
			c0,0,0-0.1,0.1-0.1c0-0.1,0-0.1,0-0.2c0.1,0,0.1,0,0.1-0.1c0,0,0,0,0,0c0.1,0,0.1,0,0.1-0.1c0,0,0,0,0,0c0,0,0.1,0,0.1,0
			c0,0,0-0.1,0-0.1c0,0,0.1,0,0.1,0c0,0,0-0.1,0.1-0.1c0,0,0.1,0,0.1-0.1c0,0,0.1,0,0.1-0.1c0,0,0,0,0,0c0,0,0.1-0.1,0.1-0.1
			c0,0,0,0,0.1,0c0,0,0,0,0,0c0-0.1,0-0.1,0.1-0.1c0,0,0.1,0,0.1,0c0,0,0,0,0,0c0.1,0,0.1,0,0.2,0c0,0,0.1,0,0.1,0c0,0,0.1,0,0.1,0
			c0.1,0,0.1,0,0.2,0c0,0,0,0,0,0c0.1,0,0.1,0,0.2,0c0,0,0.1,0,0.1,0c0,0,0.1,0,0.1,0c0,0,0.1,0,0.1,0c0,0,0,0,0.1,0c0,0,0,0,0.1,0
			c0,0,0.1,0,0.1,0c0,0,0.1,0,0.1,0C6.2,1,6.2,1,6.2,0.9c0.1,0,0.2,0,0.4,0c0,0-0.1,0-0.1-0.1c0,0-0.1,0-0.1-0.1c0,0,0.1,0,0.1,0
			c0,0,0,0-0.1,0c0,0-0.1,0-0.1,0C6.1,0.6,5.9,0.6,5.7,0.5C5.3,0.4,4.9,0.2,4.4,0.1C4.2,0.1,4,0,3.8,0C3.7,0,3.6,0,3.5,0
			C3.4,0,3.3,0.1,3.3,0.2c0,0,0,0,0,0c0,0.1-0.1,0.2-0.3,0.3c-0.1,0-0.1,0-0.2,0.1L2.6,0.5c0,0-0.1,0-0.1-0.1c0,0-0.1-0.1-0.1-0.1
			C2.4,0.2,2.3,0.1,2.2,0.1c-0.1,0-0.1,0-0.2,0C2,0.1,2,0.1,2,0.2c0,0,0,0,0,0c-0.1,0-0.1-0.1-0.2-0.1c0,0-0.1,0-0.1,0c0,0,0,0,0,0
			c0.1,0.1,0.1,0.1,0.1,0.3c0,0,0,0,0,0c0,0,0,0,0,0c0,0,0,0,0,0c0,0,0,0,0,0.1c0,0,0,0,0,0c0,0,0,0,0,0c0,0,0,0,0,0c0,0,0,0,0,0
			c0,0,0,0,0,0c0,0,0,0,0,0c0,0,0,0,0,0c0,0,0,0,0,0c0,0,0,0.1,0,0.1c0,0,0,0,0,0.1C2,0.8,2,0.9,2,0.9C2,0.9,2,1,1.9,1
			C1.8,1,1.7,1.1,1.6,1.1c-0.1,0-0.2,0-0.3,0C1.2,1,1,1.1,0.9,1.2C0.8,1.4,0.7,1.6,0.6,1.8C0.5,2,0.4,2.2,0.3,2.4
			C0.2,2.6,0.1,2.9,0.1,3.1C0,3.2,0,3.3,0,3.4c0,0,0,0.1,0,0.1c0,0.1,0,0.1,0,0.1c0,0,0.1-0.1,0.1-0.1c0,0,0,0,0,0c0,0,0,0,0,0
			c0,0,0,0,0.1,0c0,0,0,0,0,0c0,0,0,0,0.1-0.1c0,0,0,0,0,0c0,0,0,0,0.1,0c0,0,0,0,0-0.1c0,0,0-0.1,0.1-0.1c0,0,0,0,0,0
			c0,0,0-0.1,0.1-0.1c0,0,0,0,0,0c0.1,0,0.1,0,0.1-0.1c0-0.1,0.1-0.1,0.1-0.1c0,0,0,0,0,0C1,2.9,1,2.8,1.1,2.8
			c0.1-0.1,0.2-0.2,0.2-0.3c0,0,0,0,0,0c0,0,0.1,0,0.1,0c0,0,0,0,0-0.1c0,0,0.1,0,0.1,0c0,0,0,0,0.1,0c0,0,0.1,0,0.1,0c0,0,0,0,0,0
			c0.1,0,0.2,0,0.3,0c0,0,0.1,0,0.1,0c0.1,0,0.1,0,0.2,0c0.1,0,0.1,0.1,0.2,0c0.1,0,0.1,0.1,0.2,0.1c0,0,0,0,0.1,0.1
			c0.1,0.1,0.1,0.1,0.2,0.2C3,2.9,3.2,3.1,3.3,3.3c0.1,0.1,0.1,0.3,0.2,0.4c0,0.1,0.1,0.1,0.2,0.2c0.1,0.1,0.1,0.1,0.2,0
			c0,0,0,0,0.1,0C3.9,3.8,4,3.8,4,3.7z"/>
	</g>
	<g>
		<path class="st1" d="M4.6,4.6V2.2C4.6,2.1,4.7,2,4.9,2h1.4c0.1,0,0.2,0.1,0.2,0.2v0c0,0.1-0.1,0.2-0.2,0.2H5.5
			c-0.1,0-0.2,0.1-0.2,0.2V3c0,0.1,0.1,0.2,0.2,0.2h0.7c0.1,0,0.2,0.1,0.2,0.2v0c0,0.1-0.1,0.2-0.2,0.2H5.5C5.3,3.7,5.2,3.8,5.2,4
			v0.7c0,0.1-0.1,0.2-0.2,0.2H4.9C4.7,4.9,4.6,4.8,4.6,4.6z"/>
		<path class="st1" d="M8.5,4.9H7.1C7,4.9,6.9,4.8,6.9,4.6V2.2C6.9,2.1,7,2,7.1,2h0.1c0.1,0,0.2,0.1,0.2,0.2v1.9
			c0,0.1,0.1,0.2,0.2,0.2h0.8c0.1,0,0.2,0.1,0.2,0.2v0C8.8,4.8,8.6,4.9,8.5,4.9z"/>
		<path class="st1" d="M11.7,3.4c0,0.9-0.5,1.5-1.4,1.5c-0.9,0-1.4-0.6-1.4-1.5c0-0.9,0.5-1.5,1.4-1.5C11.1,1.9,11.7,2.5,11.7,3.4z
			 M9.5,3.4c0,0.6,0.3,1,0.8,1c0.5,0,0.8-0.4,0.8-1c0-0.6-0.3-1-0.8-1S9.5,2.8,9.5,3.4z"/>
		<path class="st1" d="M12,3.4c0-0.9,0.5-1.5,1.4-1.5c0.6,0,1,0.3,1.2,0.8C14.6,2.9,14.5,3,14.3,3h-0.1C14.1,3,14,3,14,2.9
			c-0.1-0.3-0.3-0.4-0.6-0.4c-0.5,0-0.8,0.4-0.8,1c0,0.6,0.3,1,0.8,1c0.3,0,0.5-0.2,0.6-0.4c0-0.1,0.1-0.2,0.2-0.2h0.1
			c0.2,0,0.3,0.2,0.2,0.3c-0.2,0.5-0.6,0.7-1.2,0.7C12.5,4.9,12,4.4,12,3.4z"/>
		<path class="st1" d="M15,4.6V2.2C15,2.1,15.1,2,15.2,2h0.1c0.1,0,0.2,0.1,0.2,0.2v1.1h0l1-1.2C16.7,2,16.7,2,16.8,2h0
			c0.2,0,0.3,0.2,0.2,0.4l-0.6,0.8c-0.1,0.1-0.1,0.2,0,0.3l0.8,1.1c0.1,0.2,0,0.4-0.2,0.4h-0.1c-0.1,0-0.2,0-0.2-0.1l-0.6-0.9
			c-0.1-0.1-0.3-0.1-0.4,0l0,0c0,0-0.1,0.1-0.1,0.2v0.6c0,0.1-0.1,0.2-0.2,0.2h-0.1C15.1,4.9,15,4.8,15,4.6z"/>
	</g>
</g>
</svg>
