<?xml version="1.0" encoding="utf-8"?>
<!-- Generator: Adobe Illustrator 24.0.3, SVG Export Plug-In . SVG Version: 6.00 Build 0)  -->
<svg version="1.1" id="Layer_1" xmlns="http://www.w3.org/2000/svg" xmlns:xlink="http://www.w3.org/1999/xlink" x="0px" y="0px"
	 viewBox="0 0 62.2 17.7" style="enable-background:new 0 0 62.2 17.7;" xml:space="preserve">
<style type="text/css">
	.st0{fill:#F15A29;}
	.st1{fill:#231F20;}
</style>
<g>
	<path class="st0" d="M14.3,13.2c0-0.2-0.1-0.4-0.1-0.6c-0.2-0.4-0.3-0.9-0.5-1.3c-0.4-1-0.8-1.9-1-2.9c0-0.2-0.1-0.3-0.1-0.5
		c0-0.1,0-0.2,0.1-0.3c0.1-0.1,0.2-0.3,0.2-0.4C13,6.9,13,6.8,13.1,6.6c0.2,0.1,0.4,0,0.4-0.2c0,0,0.1-0.1,0.1-0.1
		c0.3,0,0.3,0,0.3-0.3c0,0,0-0.1,0-0.1c0.1,0,0.3,0,0.3-0.1c0.1-0.1,0.1-0.2,0.1-0.3c0.1,0,0.2,0,0.2-0.1c0.1-0.1,0.2-0.3,0.4-0.3
		c0.1-0.1,0.2-0.2,0.3-0.2c0.1-0.1,0.2-0.1,0.3-0.2c0-0.1,0.1-0.1,0.2-0.1c0.2-0.1,0.2-0.2,0.3-0.4c0.1,0,0.2,0.1,0.3,0.1
		c0-0.1,0-0.1,0-0.1c0.1-0.2,0.1-0.2,0.3-0.2c0.2,0,0.3,0.1,0.5-0.1c0,0,0.1,0,0.1,0c0.2,0,0.4,0,0.6,0c0.2,0,0.4,0,0.5,0
		c0.2,0,0.4-0.1,0.5-0.1c0.2,0,0.4,0,0.6,0c0,0,0,0,0.1,0c0.2-0.1,0.4,0,0.6,0c0.2,0,0.4,0,0.5,0c0.1,0,0.3,0,0.4,0
		c0.1,0,0.2,0,0.3,0c0.1,0,0.2,0,0.3-0.1c0,0,0.1-0.1,0.2-0.1c0.1,0,0.2,0,0.3,0c0.1,0,0.2,0,0.3,0c0-0.2-0.2-0.2-0.3-0.4
		c0.4,0,0.9,0.1,1.3-0.1c-0.1-0.1-0.2-0.2-0.3-0.2c-0.1-0.1-0.3-0.1-0.4-0.2c0.2-0.1,0.4,0,0.5-0.1c-0.1,0-0.1-0.1-0.2-0.1
		c-0.1-0.1-0.3-0.1-0.4-0.1c-0.7-0.2-1.5-0.4-2.2-0.6c-1.5-0.5-3-1.1-4.5-1.4c-0.7-0.2-1.5-0.4-2.2-0.4c-0.4,0-0.7,0-1.1,0
		c-0.4,0.1-0.8,0.3-0.9,0.7c0,0,0,0.1,0,0.1c-0.2,0.5-0.5,0.8-0.9,1c-0.2,0.1-0.4,0.1-0.6,0.2L9.5,1.9C9.4,1.8,9.3,1.7,9.3,1.6
		C9.1,1.5,9,1.3,8.9,1.2c-0.3-0.3-0.6-0.6-1-0.8C7.7,0.2,7.5,0.2,7.3,0.3c-0.2,0-0.2,0.1-0.1,0.3c0,0,0,0.1,0.1,0.1
		C7,0.6,6.8,0.5,6.6,0.4c-0.2-0.1-0.3,0-0.4,0.1c0,0,0.1,0.1,0.1,0.1c0.3,0.2,0.4,0.5,0.5,0.9c0,0,0,0,0,0.1c0,0,0,0.1,0.1,0.1
		c0,0,0,0.1,0,0.1C6.9,1.8,7,1.9,7,2c0,0,0,0,0,0c0,0,0,0,0,0c0,0,0,0,0.1,0.1c0,0,0.1,0,0.1,0.1c0,0,0.1,0,0.1,0.1c0,0,0,0,0,0
		c0.1,0,0.1,0.1,0.1,0.1c0,0,0,0,0,0c0.1,0.1,0.1,0.2,0.1,0.3c0,0.1-0.1,0.2-0.2,0.2C7.3,3,7.2,3.1,7.2,3.3c0,0.1-0.1,0.2-0.3,0.3
		C6.6,3.7,6.2,3.8,5.8,3.8c-0.3,0-0.7,0-1-0.1C4.2,3.6,3.7,3.8,3.4,4.3C2.9,5,2.4,5.7,2,6.5c-0.3,0.7-0.7,1.4-1,2.1
		c-0.3,0.8-0.6,1.7-0.9,2.5C0.1,11.5,0,11.9,0,12.4c0,0.1,0,0.2,0.1,0.3c0,0.2-0.1,0.4,0.1,0.5c0.2,0,0.2-0.2,0.3-0.3c0,0,0,0,0,0
		c0,0,0,0,0,0c0.1,0.2,0.1,0.2,0.2,0.1c0,0,0.1-0.1,0.1-0.1C1,12.8,1,12.7,1.1,12.6c0,0.1,0,0.1,0.1,0.1c0.1,0.1,0.1,0.2,0.2,0
		c0.1-0.1,0.1-0.2,0.2-0.2c0.1-0.1,0.1-0.3,0.3-0.3c0,0,0.1-0.1,0.1-0.1c0.1-0.1,0.2-0.2,0.2-0.3c0,0,0.1-0.1,0.1-0.1
		c0.2,0,0.3-0.2,0.4-0.3c0.1-0.2,0.2-0.4,0.4-0.5c0,0,0.1-0.1,0.1-0.1c0.3-0.3,0.5-0.6,0.8-0.8c0.3-0.3,0.6-0.7,0.8-1.1
		c0,0,0,0,0.1,0c0.1,0,0.2,0.1,0.4,0.1c0-0.1,0.1-0.2,0.1-0.2c0.1,0,0.2,0,0.3,0c0.1,0,0.1-0.1,0.2-0.1c0.2,0,0.3,0,0.5,0
		c0,0,0-0.1,0-0.1c0.3,0.1,0.6-0.1,1-0.2C7.6,8.5,7.8,8.5,8,8.3c0.2,0.1,0.4,0.1,0.5,0c0.2,0,0.4,0.2,0.6-0.1
		c0.3,0.1,0.5,0.3,0.6,0.5c0.1,0.1,0.1,0.2,0.2,0.2c0.2,0.2,0.5,0.5,0.6,0.7c0.5,0.6,0.9,1.3,1.3,2c0.2,0.5,0.5,0.9,0.8,1.4
		c0.1,0.2,0.3,0.4,0.5,0.6c0.2,0.2,0.4,0.2,0.6,0c0.1-0.1,0.1-0.1,0.2-0.1C14.3,13.6,14.4,13.4,14.3,13.2z"/>
</g>
<g>
	<path class="st1" d="M16.7,16.7V7.9c0-0.5,0.4-0.9,0.9-0.9h5.1c0.5,0,0.9,0.4,0.9,0.9V8c0,0.5-0.4,0.9-0.9,0.9h-2.9
		c-0.5,0-0.9,0.4-0.9,0.9v1.1c0,0.5,0.4,0.9,0.9,0.9h2.5c0.5,0,0.9,0.4,0.9,0.9v0c0,0.5-0.4,0.9-0.9,0.9h-2.5
		c-0.5,0-0.9,0.4-0.9,0.9v2.4c0,0.5-0.4,0.9-0.9,0.9h-0.5C17.1,17.5,16.7,17.1,16.7,16.7z"/>
	<path class="st1" d="M30.8,17.5h-5c-0.5,0-0.9-0.4-0.9-0.9V7.9c0-0.5,0.4-0.9,0.9-0.9h0.5c0.5,0,0.9,0.4,0.9,0.9v6.9
		c0,0.5,0.4,0.9,0.9,0.9h2.8c0.5,0,0.9,0.4,0.9,0.9v0.1C31.6,17.1,31.2,17.5,30.8,17.5z"/>
	<path class="st1" d="M42.2,12.3c0,3.3-1.9,5.4-5,5.4c-3.1,0-5-2.1-5-5.4c0-3.3,1.9-5.4,5-5.4C40.3,6.9,42.2,9,42.2,12.3z
		 M34.4,12.3c0,2.2,1.1,3.6,2.8,3.6c1.7,0,2.8-1.4,2.8-3.6c0-2.2-1.1-3.6-2.8-3.6S34.4,10.1,34.4,12.3z"/>
	<path class="st1" d="M43.3,12.3c0-3.4,1.9-5.4,4.9-5.4c2.1,0,3.7,1.1,4.3,2.8c0.2,0.6-0.2,1.2-0.8,1.2h-0.4c-0.4,0-0.7-0.2-0.8-0.6
		c-0.4-1-1.2-1.6-2.3-1.6c-1.6,0-2.7,1.4-2.7,3.6c0,2.2,1,3.6,2.7,3.6c1.1,0,1.9-0.5,2.3-1.4c0.1-0.3,0.4-0.5,0.8-0.5h0.4
		c0.6,0,1,0.6,0.8,1.2c-0.6,1.6-2.2,2.6-4.3,2.6C45.2,17.7,43.3,15.7,43.3,12.3z"/>
	<path class="st1" d="M54.2,16.7V7.9c0-0.5,0.4-0.9,0.9-0.9h0.5c0.5,0,0.9,0.4,0.9,0.9v3.9h0.1l3.7-4.4c0.2-0.2,0.4-0.3,0.7-0.3h0.2
		c0.7,0,1.1,0.9,0.7,1.4l-2.3,2.7c-0.3,0.3-0.3,0.7,0,1.1l2.8,3.9c0.4,0.6,0,1.4-0.7,1.4h-0.5c-0.3,0-0.5-0.1-0.7-0.4L58,14.1
		c-0.3-0.5-1-0.5-1.4-0.1l-0.1,0.1c-0.1,0.2-0.2,0.4-0.2,0.6v2c0,0.5-0.4,0.9-0.9,0.9H55C54.6,17.5,54.2,17.1,54.2,16.7z"/>
</g>
</svg>
