<?xml version="1.0" encoding="utf-8"?>
<!-- Generator: Adobe Illustrator 24.0.3, SVG Export Plug-In . SVG Version: 6.00 Build 0)  -->
<svg version="1.1" id="Layer_1" xmlns="http://www.w3.org/2000/svg" xmlns:xlink="http://www.w3.org/1999/xlink" x="0px" y="0px"
	 viewBox="0 0 31.8 9" style="enable-background:new 0 0 31.8 9;" xml:space="preserve">
<style type="text/css">
	.st0{fill:#F15A29;}
	.st1{fill:#231F20;}
</style>
<g>
	<g>
		<path class="st0" d="M7.3,6.7c0-0.1,0-0.2-0.1-0.3C7.2,6.2,7.1,6,7,5.8c-0.2-0.5-0.4-1-0.5-1.5c0-0.1,0-0.2-0.1-0.3
			c0-0.1,0-0.1,0-0.2c0-0.1,0.1-0.1,0.1-0.2c0-0.1,0.1-0.2,0.1-0.3c0.1,0,0.2,0,0.2-0.1c0,0,0,0,0.1,0c0.1,0,0.1,0,0.2-0.2
			c0,0,0,0,0,0c0.1,0,0.1,0,0.2-0.1c0,0,0-0.1,0.1-0.2c0,0,0.1,0,0.1,0c0.1-0.1,0.1-0.2,0.2-0.2c0-0.1,0.1-0.1,0.2-0.1
			C8,2.4,8,2.4,8,2.3c0,0,0-0.1,0.1-0.1c0.1,0,0.1-0.1,0.2-0.2c0,0,0.1,0,0.1,0.1c0,0,0,0,0-0.1C8.5,2,8.5,2,8.6,2
			c0.1,0,0.2,0,0.2,0c0,0,0,0,0.1,0c0.1,0,0.2,0,0.3,0c0.1,0,0.2,0,0.3,0c0.1,0,0.2,0,0.3,0c0.1,0,0.2,0,0.3,0c0,0,0,0,0,0
			c0.1,0,0.2,0,0.3,0c0.1,0,0.2,0,0.3,0c0.1,0,0.1,0,0.2,0c0.1,0,0.1,0,0.2,0c0,0,0.1,0,0.1,0c0,0,0.1,0,0.1,0c0,0,0.1,0,0.1,0
			c0.1,0,0.1,0,0.2,0c0-0.1-0.1-0.1-0.1-0.2c0.2,0,0.5,0,0.7-0.1c0-0.1-0.1-0.1-0.2-0.1c-0.1,0-0.1,0-0.2-0.1c0.1,0,0.2,0,0.3,0
			c0,0-0.1,0-0.1-0.1c-0.1,0-0.1,0-0.2-0.1c-0.4-0.1-0.8-0.2-1.1-0.3C9.8,0.7,9,0.4,8.2,0.2C7.8,0.1,7.5,0,7.1,0C6.9,0,6.7,0,6.5,0
			c-0.2,0-0.4,0.1-0.4,0.4c0,0,0,0,0,0.1C6,0.7,5.8,0.9,5.6,1C5.5,1,5.3,1.1,5.3,1.1L4.9,1c0,0-0.1-0.1-0.1-0.1
			C4.7,0.7,4.6,0.7,4.5,0.6C4.4,0.4,4.3,0.3,4.1,0.2c-0.1,0-0.2-0.1-0.3,0c-0.1,0-0.1,0.1-0.1,0.2c0,0,0,0,0,0.1
			C3.6,0.3,3.5,0.3,3.4,0.2c-0.1,0-0.1,0-0.2,0c0,0,0,0,0,0c0.1,0.1,0.2,0.3,0.2,0.5c0,0,0,0,0,0c0,0,0,0,0,0.1c0,0,0,0,0,0
			c0,0,0,0.1,0.1,0.1c0,0,0,0,0,0c0,0,0,0,0,0c0,0,0,0,0,0c0,0,0,0,0,0c0,0,0,0,0.1,0c0,0,0,0,0,0c0,0,0.1,0,0.1,0.1c0,0,0,0,0,0
			c0.1,0,0.1,0.1,0,0.2c0,0,0,0.1-0.1,0.1c0,0.1-0.1,0.1-0.1,0.2c0,0.1-0.1,0.1-0.1,0.1C3.4,1.9,3.2,1.9,3,1.9c-0.2,0-0.3,0-0.5,0
			C2.2,1.8,1.9,1.9,1.7,2.2C1.5,2.5,1.2,2.9,1,3.3C0.9,3.7,0.7,4,0.5,4.4C0.4,4.8,0.2,5.3,0.1,5.7C0,5.9,0,6.1,0,6.3
			c0,0.1,0,0.1,0.1,0.1c0,0.1,0,0.2,0,0.3c0.1,0,0.1-0.1,0.2-0.2c0,0,0,0,0,0c0,0,0,0,0,0c0,0.1,0.1,0.1,0.1,0c0,0,0,0,0.1-0.1
			c0,0,0.1-0.1,0.1-0.1c0,0,0,0.1,0,0.1c0,0.1,0.1,0.1,0.1,0c0,0,0.1-0.1,0.1-0.1c0-0.1,0.1-0.1,0.2-0.1c0,0,0,0,0.1-0.1
			C1,6.2,1.1,6.1,1.1,6c0,0,0-0.1,0.1-0.1c0.1,0,0.1-0.1,0.2-0.2c0.1-0.1,0.1-0.2,0.2-0.3c0,0,0,0,0.1-0.1c0.1-0.1,0.3-0.3,0.4-0.4
			c0.2-0.2,0.3-0.3,0.4-0.5c0,0,0,0,0,0c0.1,0,0.1,0,0.2,0.1c0,0,0-0.1,0-0.1c0.1,0,0.1,0,0.2,0C3,4.5,3,4.4,3,4.4
			c0.1,0,0.2,0,0.3,0c0,0,0,0,0,0c0.2,0,0.3-0.1,0.5-0.1c0.1,0.1,0.2,0.1,0.3,0c0.1,0.1,0.2,0.1,0.3,0c0.1,0,0.2,0.1,0.3,0
			c0.2,0,0.2,0.1,0.3,0.3C5,4.5,5,4.5,5,4.6c0.1,0.1,0.2,0.2,0.3,0.4C5.6,5.3,5.8,5.6,6,6c0.1,0.2,0.3,0.5,0.4,0.7
			C6.5,6.8,6.6,6.9,6.7,7C6.8,7.1,6.9,7.1,7,7c0,0,0.1,0,0.1,0C7.3,6.9,7.3,6.9,7.3,6.7z"/>
	</g>
	<g>
		<path class="st1" d="M8.6,8.5V4.1c0-0.2,0.2-0.4,0.4-0.4h2.6c0.2,0,0.4,0.2,0.4,0.4v0c0,0.2-0.2,0.4-0.4,0.4h-1.5
			C9.9,4.5,9.7,4.7,9.7,5v0.5C9.7,5.8,9.9,6,10.1,6h1.3c0.2,0,0.4,0.2,0.4,0.4v0c0,0.2-0.2,0.4-0.4,0.4h-1.3c-0.2,0-0.4,0.2-0.4,0.4
			v1.2C9.7,8.8,9.5,9,9.2,9H9C8.8,9,8.6,8.8,8.6,8.5z"/>
		<path class="st1" d="M15.7,9h-2.6c-0.2,0-0.4-0.2-0.4-0.4V4.1c0-0.2,0.2-0.4,0.4-0.4h0.2c0.2,0,0.4,0.2,0.4,0.4v3.5
			C13.8,7.8,14,8,14.3,8h1.4c0.2,0,0.4,0.2,0.4,0.4v0C16.2,8.8,16,9,15.7,9z"/>
		<path class="st1" d="M21.6,6.3C21.6,8,20.6,9,19,9c-1.6,0-2.6-1.1-2.6-2.8c0-1.7,1-2.8,2.6-2.8C20.6,3.5,21.6,4.6,21.6,6.3z
			 M17.6,6.3c0,1.1,0.6,1.8,1.4,1.8c0.9,0,1.4-0.7,1.4-1.8c0-1.1-0.6-1.8-1.4-1.8S17.6,5.2,17.6,6.3z"/>
		<path class="st1" d="M22.1,6.3c0-1.7,1-2.8,2.5-2.8c1.1,0,1.9,0.6,2.2,1.4c0.1,0.3-0.1,0.6-0.4,0.6h-0.2c-0.2,0-0.3-0.1-0.4-0.3
			c-0.2-0.5-0.6-0.8-1.2-0.8c-0.8,0-1.4,0.7-1.4,1.8c0,1.1,0.5,1.8,1.4,1.8c0.6,0,1-0.3,1.2-0.7c0.1-0.2,0.2-0.3,0.4-0.3h0.2
			c0.3,0,0.5,0.3,0.4,0.6C26.5,8.5,25.7,9,24.6,9C23.1,9,22.1,8,22.1,6.3z"/>
		<path class="st1" d="M27.7,8.5V4.1c0-0.2,0.2-0.4,0.4-0.4h0.2c0.2,0,0.4,0.2,0.4,0.4v2h0l1.9-2.3c0.1-0.1,0.2-0.2,0.3-0.2h0.1
			c0.4,0,0.6,0.4,0.3,0.7l-1.2,1.4c-0.1,0.2-0.1,0.4,0,0.5l1.4,2c0.2,0.3,0,0.7-0.4,0.7h-0.3c-0.1,0-0.3-0.1-0.4-0.2l-1.1-1.6
			c-0.2-0.2-0.5-0.2-0.7,0l0,0c-0.1,0.1-0.1,0.2-0.1,0.3v1c0,0.2-0.2,0.4-0.4,0.4h-0.2C27.9,9,27.7,8.8,27.7,8.5z"/>
	</g>
</g>
</svg>
